<svg width="151" height="151" viewBox="0 0 151 151" fill="none" xmlns="http://www.w3.org/2000/svg">
<path d="M93.6301 51.9087C92.5281 53.1538 88.734 57.332 87.5476 58.9214C79.9151 47.8216 78.4123 46.6436 72.3774 46.6436C61.768 46.6993 50.7262 50.5461 41.7943 56.102C35.8693 59.7929 35.3827 61.6406 34.6958 67.3652C34.1843 71.348 33.9076 75.3571 33.8672 79.3726C34.1323 77.4654 46.1036 77.8609 46.1036 80.0596C46.1322 76.4387 46.4614 67.9949 46.6617 66.0772C47.4489 65.7909 48.5079 65.4045 49.6672 65.0038C51.7893 63.1321 53.7921 61.1294 55.6637 59.0072C56.3874 62.501 56.8277 66.0475 56.9804 69.6121C61.8908 67.2567 67.9958 66.9645 73.3958 68.0665C73.4673 67.8661 73.5532 67.6514 73.6217 67.4511C73.6533 64.6858 73.4907 61.9216 73.1351 59.179C74.7245 61.7008 80.6593 69.8908 82.9273 72.1167C86.6181 75.7518 89.7818 75.4226 93.3461 71.258C96.4246 67.6953 99.2959 63.9586 101.946 60.0663C102.434 54.6949 97.0498 51.0154 93.6301 51.9087Z" fill="#09AFF4"/>
<path d="M92.4565 125.083C91.8298 124.249 91.5248 123.218 91.5978 122.178C88.9178 121.612 86.1768 121.386 83.4403 121.505C82.9371 124.669 82.6328 127.66 82.3955 129.264C83.0538 127.146 102.861 133.013 103.29 135.618C103.397 131.861 95.3196 128.844 92.4565 125.083Z" fill="#09AFF4"/>
<path d="M127.993 18.5339C124.63 15.3281 127.85 12.1223 126.548 8.77344C130.398 10.3048 133.002 14.2405 131.271 17.9472L127.993 18.5339Z" fill="#09AFF4"/>
<path d="M28.2409 117.713C24.6156 118.473 22.441 119.125 20.8848 119.473C23.3893 119.473 24.706 139.939 22.2157 141.742C25.8968 140.193 25.6324 131.91 27.1118 128.461C27.3281 127.849 27.6987 127.304 28.1876 126.878C28.6765 126.451 29.2673 126.159 29.9026 126.028C29.8063 123.184 29.245 120.376 28.2409 117.713Z" fill="#09AFF4"/>
<path d="M110.547 37.239C106.954 34.3337 101.888 37.4966 102.131 41.375C102.909 41.3922 103.676 41.5574 104.391 41.8616C104.815 42.5584 105.056 43.3509 105.092 44.1658C105.579 45.0531 105.965 45.783 106.28 46.4127C111.048 47.8582 115.27 41.0496 110.547 37.239Z" fill="#09AFF4"/>
<path d="M95.7917 43.0635L94.6618 41.8327L93.6886 38.8273C89.9819 37.2387 83.7459 40.4016 83.9997 46.67C84.2257 52.1227 89.5383 54.341 92.2854 53.4537C92.8721 52.7954 93.3587 52.2485 93.6593 51.9081C93.9809 51.8199 94.3138 51.7812 94.6468 51.7936C94.7899 49.1173 94.3892 47.6718 94.3892 46.3122C94.3892 45.7684 95.0332 44.7666 95.7917 43.0635Z" fill="#09AFF4"/>
<path d="M122.382 32.3036L84.3986 23.2752C81.9084 22.8172 80.4629 23.862 79.7474 25.7225L76.9558 32.9107C77.7611 39.3509 77.6842 42.3073 77.0854 43.0395C76.5702 43.6692 75.3823 43.9697 73.9512 43.7551C74.0971 44.7518 74.2929 45.7405 74.5379 46.7176C75.0676 46.7625 75.594 46.8438 76.1122 46.9609L83.912 26.6362L120.421 35.495L108.914 68.383L98.2808 65.1772C97.4651 66.2363 96.5778 67.3669 95.6046 68.5548L108.986 72.5763C111.032 73.1917 113.007 72.5334 113.909 70.0575L125.23 37.4987C126.002 35.2661 125.773 33.1336 122.382 32.3036ZM118.203 53.4561C118.156 53.6251 118.075 53.7828 117.965 53.9195C117.855 54.0562 117.718 54.169 117.564 54.251C117.409 54.3329 117.238 54.3823 117.064 54.3962C116.889 54.41 116.713 54.3881 116.547 54.3315C116.38 54.275 116.228 54.1851 116.098 54.0674C115.968 53.9497 115.864 53.8067 115.791 53.6472C115.718 53.4876 115.678 53.3148 115.675 53.1395C115.671 52.9642 115.703 52.79 115.77 52.6275C115.816 52.4585 115.897 52.3007 116.007 52.1641C116.117 52.0274 116.253 51.9146 116.408 51.8326C116.564 51.7507 116.734 51.7012 116.908 51.6874C117.083 51.6735 117.259 51.6955 117.425 51.7521C117.591 51.8087 117.744 51.8985 117.874 52.0162C118.004 52.1338 118.108 52.2769 118.181 52.4364C118.255 52.5959 118.294 52.7687 118.297 52.9441C118.301 53.1194 118.269 53.2937 118.203 53.4561Z" fill="#E9E9E9"/>
<path d="M97.4512 44.8701L100.628 48.3478C98.9826 49.0634 97.1793 47.6059 97.4512 44.8701Z" fill="#E9E9E9"/>
<path d="M101.973 43.7822C101.572 43.682 100.685 43.5246 99.6377 43.3672L101.973 45.9146C102.03 45.205 102.03 44.4919 101.973 43.7822Z" fill="#E9E9E9"/>
<path d="M91.6118 122.166C94.0734 122.738 94.7317 123.511 94.7317 124.084C94.7317 124.814 93.5266 125.071 92.472 125.071C91.8491 124.236 91.544 123.206 91.6118 122.166Z" fill="#E9E9E9"/>
<path d="M83.4399 121.509C83.2538 122.768 83.0964 123.813 82.9819 124.715C81.2931 124.385 80.2145 123.669 80.277 122.883C80.3297 122.224 81.2216 121.666 83.4399 121.509Z" fill="#E9E9E9"/>
<path d="M25.8211 115.297C26.4809 115.129 27.3954 115.712 28.2398 117.73C26.7333 118.059 25.5921 118.332 24.6619 118.558C24.4329 116.799 25.0641 115.488 25.8211 115.297Z" fill="#E9E9E9"/>
<path d="M29.9001 126.031C29.2678 126.169 28.6805 126.464 28.1927 126.89C27.7048 127.315 27.3323 127.856 27.1094 128.464C27.4107 129.407 28.2159 130.403 28.9526 129.877C29.4896 129.495 29.9514 128.304 29.9001 126.031Z" fill="#E9E9E9"/>
<path d="M69.7865 79.4893C69.5289 83.1387 69.715 91.8258 69.7865 94.8885C68.3554 94.4305 67.0959 94.0441 66.1514 93.7865C67.5539 88.019 68.6702 83.4822 69.7865 79.4893Z" fill="#E9E9E9"/>
<path d="M33.8775 79.3467C33.7916 79.9764 34.9651 80.6348 36.6645 80.7206C36.8176 80.6039 36.9404 80.4517 37.0222 80.277C37.1538 79.5885 37.2019 78.8873 37.1654 78.1875C34.8936 78.3449 33.949 78.8458 33.8775 79.3467Z" fill="#E9E9E9"/>
<path d="M46.0989 79.9006C45.9731 79.4238 45.2213 78.9116 43.5996 78.5869C43.6425 79.2166 43.6712 80.1326 43.7141 81.1479C44.6617 81.1186 46.3248 80.7578 46.0989 79.9006Z" fill="#E9E9E9"/>
<path d="M55.6746 58.9961C55.9322 60.2269 56.1755 61.5865 56.3759 62.9883C54.1159 63.5439 51.8853 64.2127 49.6924 64.9919C51.803 63.113 53.8006 61.111 55.6746 58.9961Z" fill="#E9E9E9"/>
<path d="M75.4965 62.6301C74.8239 64.3188 74.2085 65.9074 73.636 67.4508C73.6672 64.6854 73.5046 61.9213 73.1494 59.1787C73.5501 59.825 74.4209 61.113 75.4965 62.6301Z" fill="#E9E9E9"/>
<path d="M94.2495 131.081C88.7682 129.321 82.7603 128.115 82.395 129.265C81.9114 130.805 87.4018 133.038 92.8748 134.558C97.6203 135.878 102.357 136.663 103.168 135.997C104.729 134.717 96.1898 131.704 94.2495 131.081Z" fill="#E9E9E9"/>
<path d="M23.4129 129.633C23.0619 124.408 22.112 119.491 20.8692 119.491C19.3574 119.484 18.8354 124.509 19.017 129.798C19.2196 135.673 20.2907 141.875 21.8424 141.875C24.029 141.387 23.562 131.849 23.4129 129.633Z" fill="#E9E9E9"/>
<path d="M130.696 82.508C126.922 81.7691 123.016 82.1321 119.444 83.555C115.871 84.9786 112.785 87.4003 110.554 90.5315C108.322 93.6635 107.04 97.3717 106.86 101.212C106.682 105.053 107.613 108.865 109.544 112.19C120.206 105.521 127.562 94.8159 130.696 82.508Z" fill="#E9E9E9"/>
<path d="M73.8369 41.793C75.3253 42.8663 76.6992 43.5676 77.1572 42.895C76.7135 43.7823 75.7833 44.0399 73.98 43.7537C73.9085 43.0953 73.8655 42.437 73.8369 41.793Z" fill="#E9E9E9"/>
<path d="M78.8453 26.7082C78.0439 25.6921 76.6557 25.0767 74.5232 25.3057C75.4678 17.5059 64.3477 16.3896 63.9184 22.9156C58.2367 18.4934 49.1059 25.3486 55.5318 30.0714C52.0397 30.2861 50.8805 34.9087 54.6158 34.9087C46.0003 40.7908 52.784 53.8859 71.4176 41.4619C72.4219 40.5989 73.3246 39.6242 74.1082 38.5567C72.5196 36.3956 74.2942 35.036 74.9526 36.5817C75.3247 37.469 75.7397 36.1094 75.7397 35.0074C76.264 35.0384 76.7762 35.1748 77.2462 35.4081C79.3922 34.1645 80.8233 29.1984 78.8453 26.7082Z" fill="#E9E9E9"/>
<path d="M127.992 18.5339C124.629 15.3281 127.849 12.1223 126.547 8.77344C130.397 10.3048 133.001 14.2405 131.27 17.9472L127.992 18.5339Z" stroke="black" stroke-width="0.564931" stroke-linecap="round" stroke-linejoin="round"/>
<path d="M74.5381 46.7166C75.0678 46.7616 75.5934 46.8428 76.1124 46.9599L83.9122 26.6352L120.421 35.4941L108.914 68.3821L98.281 65.1763C97.4652 66.2353 96.5779 67.3659 95.6047 68.5538L108.986 72.5753C111.033 73.1907 113.008 72.5324 113.909 70.0565L125.23 37.4977C126.003 35.2651 125.774 33.1327 122.382 32.3026L84.3988 23.2742C81.9085 22.8163 80.4631 23.861 79.7475 25.7215L79.169 27.2102L74.5381 46.7166ZM118.203 53.4551C118.156 53.6241 118.075 53.7818 117.965 53.9185C117.855 54.0552 117.718 54.168 117.564 54.25C117.409 54.3319 117.239 54.3813 117.064 54.3952C116.889 54.4091 116.713 54.3871 116.547 54.3305C116.381 54.274 116.228 54.1841 116.098 54.0664C115.968 53.9488 115.864 53.8057 115.791 53.6462C115.718 53.4866 115.679 53.3139 115.675 53.1385C115.671 52.9632 115.703 52.789 115.77 52.6265C115.816 52.4575 115.897 52.2998 116.007 52.1631C116.117 52.0264 116.253 51.9137 116.408 51.8316C116.564 51.7497 116.734 51.7003 116.909 51.6864C117.083 51.6725 117.26 51.6945 117.425 51.7511C117.591 51.8077 117.744 51.8975 117.874 52.0152C118.004 52.1328 118.109 52.2759 118.182 52.4354C118.255 52.595 118.294 52.7678 118.298 52.9431C118.301 53.1185 118.269 53.2927 118.203 53.4551Z" stroke="black" stroke-width="0.564931" stroke-linejoin="round"/>
<path d="M5.7998 113.993L15.3027 100.426" stroke="black" stroke-width="0.564931" stroke-linecap="round" stroke-linejoin="round"/>
<path d="M3.76758 102.457L17.3349 111.96" stroke="black" stroke-width="0.564931" stroke-linecap="round" stroke-linejoin="round"/>
<path d="M96.207 82.8643L105.366 81.2471" stroke="black" stroke-width="0.564931" stroke-linecap="round" stroke-linejoin="round"/>
<path d="M99.9834 77.4844L101.586 86.6438" stroke="black" stroke-width="0.564931" stroke-linecap="round" stroke-linejoin="round"/>
<path d="M126.862 122.18C137.919 122.18 146.884 113.215 146.884 102.158C146.884 91.1001 137.919 82.1357 126.862 82.1357C115.804 82.1357 106.84 91.1001 106.84 102.158C106.84 113.215 115.804 122.18 126.862 122.18Z" stroke="black" stroke-width="0.564931" stroke-linecap="round" stroke-linejoin="round"/>
<path d="M24.7331 59.8803C29.2542 59.8803 32.9193 56.2151 32.9193 51.694C32.9193 47.1729 29.2542 43.5078 24.7331 43.5078C20.2119 43.5078 16.5469 47.1729 16.5469 51.694C16.5469 56.2151 20.2119 59.8803 24.7331 59.8803Z" stroke="black" stroke-width="0.564931" stroke-linecap="round" stroke-linejoin="round"/>
<path d="M60.1543 117.956C66.7803 119.288 73.5344 119.873 80.2907 119.702" stroke="black" stroke-width="0.564931" stroke-linecap="round" stroke-linejoin="round"/>
<path d="M41.793 111.729C26.3519 104.124 14.4935 90.7865 8.74759 74.5617C-3.36 41.3589 17.2931 26.6511 36.7267 32.4285C46.8442 35.4362 51.7539 32.8006 52.3836 23.8415C52.9704 15.4979 58.8953 9.23995 76.5844 10.3171C91.9129 11.2515 109.46 20.2525 119.117 31.5041M94.7315 118.242C127.817 110.902 142.763 71.9299 124.557 39.4669L94.7315 118.242Z" stroke="black" stroke-width="0.564931" stroke-linecap="round" stroke-linejoin="round"/>
<path d="M28.8841 15.0996L9.97772 18.4342C9.24715 18.5753 8.60132 18.998 8.17973 19.6111C7.75807 20.2241 7.59439 20.9784 7.72402 21.7111C7.85366 22.4438 8.2662 23.0961 8.87256 23.5272C9.479 23.9585 10.2306 24.1339 10.9652 24.0157L29.8716 20.6811L35.2527 16.8456L28.8841 15.0996Z" stroke="black" stroke-width="0.564931" stroke-linecap="round" stroke-linejoin="round"/>
<path d="M10.8662 18.2773L11.8537 23.8589" stroke="black" stroke-width="0.564931" stroke-linecap="round" stroke-linejoin="round"/>
<path d="M14.0732 17.7188L15.0464 23.3003" stroke="black" stroke-width="0.564931" stroke-linecap="round" stroke-linejoin="round"/>
<path d="M28.8838 15.0996L29.8713 20.6811" stroke="black" stroke-width="0.564931" stroke-linecap="round" stroke-linejoin="round"/>
<path d="M127.992 18.5344C128.049 21.0665 128.284 23.5915 128.693 26.0909C129.994 33.4787 132.4 41.2612 133.645 41.0465C134.89 40.8318 134.497 32.6855 133.187 25.3038C132.723 22.814 132.082 20.3605 131.27 17.9619L127.992 18.5344Z" stroke="black" stroke-width="0.564931" stroke-linecap="round" stroke-linejoin="round"/>
<path d="M128.535 25.1758L133.029 24.3887" stroke="black" stroke-width="0.564931" stroke-linecap="round" stroke-linejoin="round"/>
<path d="M36.6704 80.733C34.9673 80.6471 33.7968 79.9888 33.8834 79.3591C33.9723 78.6865 35.5865 78.0296 39.7368 78.1539C44.431 78.2985 46.1688 79.2702 46.1341 80.0574C46.11 80.6155 45.1037 81.0878 43.7298 81.1307" stroke="black" stroke-width="0.564931" stroke-linecap="round" stroke-linejoin="round"/>
<path d="M87.5621 58.9069C88.75 57.3184 92.5426 53.1537 93.6446 51.8943C96.3208 51.1644 102.418 53.9122 101.945 60.0662C99.2909 63.9543 96.4187 67.6898 93.344 71.2548C89.7714 75.4112 86.6342 75.7607 82.9252 72.1135C80.5367 69.7649 74.4384 61.2668 73.1504 59.1758C73.5059 61.9185 73.6685 64.6826 73.637 67.4479" stroke="black" stroke-width="0.564931" stroke-linecap="round" stroke-linejoin="round"/>
<path d="M89.0215 61.054C79.9337 47.687 78.6027 46.6279 72.3915 46.6279C62.7026 46.6279 51.4235 50.0748 41.8099 56.0879C35.8842 59.7931 35.4239 61.6438 34.7114 67.3511C34.208 71.3347 33.9314 75.3437 33.8828 79.3585" stroke="black" stroke-width="0.564931" stroke-linecap="round" stroke-linejoin="round"/>
<path d="M75.4971 62.6143C70.0157 76.2817 68.5756 83.7682 61.3286 114.061C59.9592 119.803 58.4528 122.645 51.7399 124.585C44.7257 126.611 30.7305 129.436 28.6982 129.98" stroke="black" stroke-width="0.564931" stroke-linecap="round" stroke-linejoin="round"/>
<path d="M24.663 118.544C24.437 116.811 25.0637 115.494 25.8222 115.295C26.8089 115.036 28.3712 116.483 29.4001 121.821C30.4893 127.471 29.6261 129.773 28.6988 129.993C28.1113 130.133 27.4394 129.492 27.1102 128.462" stroke="black" stroke-width="0.564931" stroke-linecap="round" stroke-linejoin="round"/>
<path d="M25.8213 115.295C30.8303 114.179 49.1062 110.097 50.3513 109.813" stroke="black" stroke-width="0.564931" stroke-linecap="round" stroke-linejoin="round"/>
<path d="M73.4075 68.067C63.5611 66.0634 52.502 68.7698 48.9618 78.128C45.8577 86.3436 46.815 96.7045 47.6059 110.415" stroke="black" stroke-width="0.564931" stroke-linecap="round" stroke-linejoin="round"/>
<path d="M54.7881 55.5723C56.0652 60.1508 56.8049 64.8624 56.9921 69.6119" stroke="black" stroke-width="0.564931" stroke-linecap="round" stroke-linejoin="round"/>
<path d="M46.1162 80.06C46.1448 76.4535 46.474 67.9811 46.6744 66.0633C49.8454 64.8614 53.0798 63.8343 56.3633 62.9863" stroke="black" stroke-width="0.564931" stroke-linecap="round" stroke-linejoin="round"/>
<path d="M20.8851 119.488C23.5041 119.494 24.8351 141.886 21.8583 141.872C18.8815 141.857 17.6936 119.481 20.8851 119.488Z" stroke="black" stroke-width="0.564931" stroke-linecap="round" stroke-linejoin="round"/>
<path d="M20.8838 119.488C22.5409 119.115 23.9465 118.659 28.2399 117.713" stroke="black" stroke-width="0.564931" stroke-linecap="round" stroke-linejoin="round"/>
<path d="M29.9158 126.029C27.8549 126.632 26.8509 127.619 26.0517 132.985C25.5018 136.676 24.4774 141.2 21.8584 141.873" stroke="black" stroke-width="0.564931" stroke-linecap="round" stroke-linejoin="round"/>
<path d="M82.9829 124.713C81.2942 124.384 80.2283 123.667 80.278 122.895C80.3413 121.907 82.2109 121.153 87.5054 121.578C93.4025 122.053 94.7184 123.267 94.7184 124.083C94.7184 124.813 93.5132 125.07 92.4587 125.07" stroke="black" stroke-width="0.564931" stroke-linecap="round" stroke-linejoin="round"/>
<path d="M82.395 129.263C83.0819 127.073 104.088 133.384 103.276 135.846C102.645 137.749 81.4655 132.225 82.395 129.263Z" stroke="black" stroke-width="0.564931" stroke-linecap="round" stroke-linejoin="round"/>
<path d="M82.3955 129.262C82.6388 127.616 82.8105 125.742 83.4403 121.504" stroke="black" stroke-width="0.564931" stroke-linecap="round" stroke-linejoin="round"/>
<path d="M91.6125 122.164C91.5982 124.282 92.2151 125.572 96.6359 128.717C100.101 131.18 103.577 133.225 103.276 135.844" stroke="black" stroke-width="0.564931" stroke-linecap="round" stroke-linejoin="round"/>
<path d="M71.2041 74.6348C77.1532 78.4251 82.8861 82.5438 88.378 86.9713C94.1425 91.7695 94.7323 93.5547 94.7323 101.87V124.081" stroke="black" stroke-width="0.564931" stroke-linecap="round" stroke-linejoin="round"/>
<path d="M80.2769 122.895C80.3771 117.156 80.42 100.524 80.2769 98.3936C75.9548 96.9052 69.257 94.6583 66.1514 93.7988" stroke="black" stroke-width="0.564931" stroke-linecap="round" stroke-linejoin="round"/>
<path d="M68.9283 67.4951C63.1607 74.6366 59.5255 91.1521 56.3627 114.58C47.5324 117.357 34.1654 120.462 29.3281 121.464" stroke="black" stroke-width="0.564931" stroke-linecap="round" stroke-linejoin="round"/>
<path d="M43.6145 78.5568C43.729 80.8037 43.958 86.6165 43.6575 87.7019C43.3569 88.7873 40.1383 94.0856 38.2191 96.3461C37.0034 97.7772 35.5074 98.1034 37.0455 95.1296C37.9506 93.3534 38.7309 91.5155 39.3806 89.6309C41.2049 84.4373 37.3468 83.321 35.8027 85.18C33.4435 88.0152 31.6764 88.7278 32.6112 86.4967C33.1814 85.1363 33.4842 84.3213 33.8849 83.2909C34.2857 82.2605 36.8617 80.9152 37.0335 80.3141C37.1712 79.6264 37.2192 78.9244 37.1766 78.2246" stroke="black" stroke-width="0.564931" stroke-linecap="round" stroke-linejoin="round"/>
<path d="M38.4441 92.0664C37.2594 93.2753 35.9218 94.3239 34.4654 95.1863C32.6901 96.2265 32.0754 95.2579 34.1641 93.3115C35.6245 91.9549 36.9413 90.4514 38.0938 88.8252" stroke="black" stroke-width="0.564931" stroke-linecap="round" stroke-linejoin="round"/>
<path d="M36.8701 87.7881C37.6095 88.5217 38.4564 89.1379 39.3814 89.6162" stroke="black" stroke-width="0.564931" stroke-linecap="round" stroke-linejoin="round"/>
<path d="M36.3993 90.9801C35.0416 91.655 33.6038 92.1552 32.1201 92.4685C30.1888 92.873 30.4471 91.7424 32.4922 90.8799C34.1353 90.1026 35.694 89.1573 37.1435 88.0605" stroke="black" stroke-width="0.564931" stroke-linecap="round" stroke-linejoin="round"/>
<path d="M34.4946 89.8348C33.4544 90.0066 32.3987 90.0638 31.346 90.0066C29.9435 89.8348 29.542 89.0153 31.6752 88.6899C33.3533 88.4481 34.9845 87.951 36.5125 87.2158C36.678 86.1778 37.0632 85.1873 37.6424 84.3105" stroke="black" stroke-width="0.564931" stroke-linecap="round" stroke-linejoin="round"/>
<path d="M69.8011 94.8874C69.7295 91.7818 69.5434 82.923 69.8011 79.3594" stroke="black" stroke-width="0.564931" stroke-linecap="round" stroke-linejoin="round"/>
<path d="M49.6797 64.9897C51.8019 63.1181 53.8046 61.1153 55.6762 58.9932" stroke="black" stroke-width="0.564931" stroke-linecap="round" stroke-linejoin="round"/>
<path d="M95.7905 43.05L94.6607 41.8192L93.6875 38.8281L96.5928 40.0447L110.2 54.8285C110.435 55.0828 110.56 55.4202 110.547 55.7664C110.533 56.1127 110.383 56.4393 110.128 56.6747C109.874 56.91 109.536 57.0347 109.191 57.0213C108.844 57.0079 108.517 56.8575 108.282 56.6032L97.4771 44.8525" stroke="black" stroke-width="0.564931" stroke-linecap="round" stroke-linejoin="round"/>
<path d="M108.142 52.5967C107.685 52.6806 107.261 52.8916 106.919 53.2055C106.577 53.5195 106.331 53.9235 106.208 54.3713" stroke="black" stroke-width="0.564931" stroke-linecap="round" stroke-linejoin="round"/>
<path d="M108.914 53.4395C108.458 53.5236 108.035 53.7348 107.693 54.0487C107.352 54.3626 107.105 54.7665 106.982 55.2141" stroke="black" stroke-width="0.564931" stroke-linecap="round" stroke-linejoin="round"/>
<path d="M94.6316 51.7806C94.7747 49.1044 94.374 47.6589 94.374 46.2993C94.374 45.6696 95.2478 44.3958 96.1773 42.106C96.7934 40.589 98.0077 41.5622 97.5083 44.3529C96.9629 47.4013 98.8822 49.1044 100.642 48.3172" stroke="black" stroke-width="0.564931" stroke-linecap="round" stroke-linejoin="round"/>
<path d="M99.6406 43.3506C100.685 43.508 101.573 43.6654 101.976 43.7656C102.033 44.4753 102.033 45.1884 101.976 45.898" stroke="black" stroke-width="0.564931" stroke-linecap="round" stroke-linejoin="round"/>
<path d="M97.5088 41.0498C99.4552 41.1357 103.92 41.3933 104.393 41.8656C105.108 42.5811 105.28 46.0732 105.366 47.304" stroke="black" stroke-width="0.564931" stroke-linecap="round" stroke-linejoin="round"/>
<path d="M105.094 44.167C107.598 48.7038 107.627 49.3192 106.539 50.8505" stroke="black" stroke-width="0.564931" stroke-linecap="round" stroke-linejoin="round"/>
<path d="M104.95 53.0264C103.591 54.7724 102.013 56.3753 101.673 57.2483" stroke="black" stroke-width="0.564931" stroke-linecap="round" stroke-linejoin="round"/>
<path d="M71.4379 41.4496C72.4399 40.5903 73.341 39.6199 74.124 38.5572C72.5497 36.3961 74.304 35.0396 74.9683 36.5822C75.351 37.471 75.7555 36.1099 75.7555 35.0079C76.279 35.0408 76.7912 35.177 77.262 35.4086C80.2817 33.6483 81.8989 24.5319 74.5284 25.2904C75.4692 17.4906 64.3348 16.3886 63.9198 22.8981C58.2381 18.4901 49.1073 25.3597 55.5332 30.0682C52.0412 30.2828 50.882 34.9055 54.6173 34.9055C45.9844 40.7921 52.7899 53.9082 71.4379 41.4496Z" stroke="black" stroke-width="0.564931" stroke-linecap="round" stroke-linejoin="round"/>
<path d="M63.0879 47.5729C67.5388 45.0255 72.7625 40.6431 74.1221 38.5566" stroke="black" stroke-width="0.564931" stroke-linecap="round" stroke-linejoin="round"/>
<path d="M74.3952 46.6857C74.2047 45.7065 74.0616 44.7273 73.9629 43.7398C78.2172 44.4177 77.601 42.1361 77.2433 35.4082" stroke="black" stroke-width="0.564931" stroke-linecap="round" stroke-linejoin="round"/>
<path d="M73.9633 43.7396C73.8978 43.0911 73.8519 42.4441 73.8232 41.791C75.3116 42.8787 76.6856 43.5656 77.1435 42.8787" stroke="black" stroke-width="0.564931" stroke-linecap="round" stroke-linejoin="round"/>
</svg>
