<svg width="26" height="26" viewBox="0 0 26 26" fill="none" xmlns="http://www.w3.org/2000/svg">
<g clip-path="url(#clip0_189_1728)">
<rect width="26" height="26" rx="13" fill="#A4E4FF"/>
<path d="M13.0003 11.9167C15.3936 11.9167 17.3337 9.97657 17.3337 7.58333C17.3337 5.1901 15.3936 3.25 13.0003 3.25C10.6071 3.25 8.66699 5.1901 8.66699 7.58333C8.66699 9.97657 10.6071 11.9167 13.0003 11.9167Z" stroke="#09AFF4" stroke-width="2" stroke-linecap="round" stroke-linejoin="round"/>
<path d="M6.5 22.75V20.5833C6.5 19.4341 6.95655 18.3319 7.7692 17.5192C8.58186 16.7065 9.68406 16.25 10.8333 16.25H15.1667C16.3159 16.25 17.4181 16.7065 18.2308 17.5192C19.0435 18.3319 19.5 19.4341 19.5 20.5833V22.75" stroke="#09AFF4" stroke-width="2" stroke-linecap="round" stroke-linejoin="round"/>
</g>
<defs>
<clipPath id="clip0_189_1728">
<rect width="26" height="26" rx="13" fill="white"/>
</clipPath>
</defs>
</svg>
