<svg width="239" height="265" viewBox="0 0 239 265" fill="none" xmlns="http://www.w3.org/2000/svg">
<path d="M73.8561 261.009C75.1312 257.667 77.1235 254.646 79.6927 252.16C82.2619 249.674 85.3454 247.783 88.7261 246.62C90.976 245.842 93.1146 244.656 95.2943 243.671C93.2977 242.738 91.1351 242.215 88.9343 242.134C83.7282 241.948 78.7997 239.726 75.208 235.944C74.5069 234.885 74.0374 233.69 73.8304 232.437C73.6235 231.184 73.6837 229.902 74.0072 228.675C74.6601 226.288 77.4838 227.362 79.2786 228.112C85.0999 230.431 91.4873 232.102 96.4901 235.663C103.045 240.411 110.195 240.401 117.43 241.309C105.907 236.275 96.2385 227.763 89.7799 216.964C88.3191 214.433 86.7067 214.471 84.4127 215.473C78.9526 217.81 72.7883 217.894 67.2597 215.707C61.7311 213.521 57.2851 209.239 54.8881 203.794C54.3551 202.614 54.1234 200.54 54.801 199.826C55.3868 199.445 56.0456 199.191 56.7354 199.079C57.4252 198.966 58.1309 198.999 58.8078 199.175C62.5503 199.867 66.2438 200.86 69.95 201.746L70.6369 201.821L70.0283 201.453C69.4142 200.665 68.7394 199.927 68.0103 199.244C63.1489 194.911 59.6688 189.241 58.0049 182.944C57.8156 181.499 57.8828 180.033 58.2032 178.612C59.4042 178.762 60.7841 178.536 61.766 179.036C68.5795 182.235 74.5688 186.959 79.2707 192.842C78.2841 188.663 77.6118 184.416 77.2594 180.137C77.1875 173.743 75.1449 167.524 71.4108 162.33C69.3912 158.712 67.5582 154.993 65.9188 151.188C65.4139 150.313 63.9017 149.152 63.1629 149.331C48.8245 152.846 37.5276 144.56 25.3672 139.624C22.7888 138.632 22.8661 136.107 25.4642 134.731C27.6162 133.537 29.9853 132.785 32.4327 132.518C42.0064 131.921 51.5531 134.1 59.928 138.795C58.2329 133.672 56.341 129.109 55.2174 124.374C53.726 118.017 53.2373 111.552 56.3535 105.412C57.8049 102.565 59.9991 101.819 61.8032 103.828C64.0989 106.216 66.0262 108.932 67.5213 111.888C69.4757 116.136 70.5575 120.732 70.7025 125.404C70.8475 130.076 70.0527 134.728 68.3653 139.084C67.5618 141.073 67.2923 143.238 67.5836 145.365C69.1161 152.036 72.011 158.321 76.0861 163.823C77.2902 156.901 78.2947 150.492 79.6245 144.217C82.1499 132.832 86.3682 121.893 92.1385 111.765C92.8796 110.673 93.2672 109.38 93.2489 108.059C93.2306 106.739 92.8073 105.455 92.0362 104.382C89.9572 101.167 88.2016 97.7403 86.1782 94.4931C81.3044 86.5661 75.976 79.2241 65.4515 78.7516C65.1174 78.7167 64.7909 78.6289 64.4841 78.4915C57.949 76.3729 52.4442 71.8749 49.0613 65.8893C47.5575 63.2847 48.6812 61.3708 51.6365 61.1282C52.6268 61.1589 53.6102 61.3072 54.566 61.5701C62.3606 63.1473 69.7737 65.5649 75.3659 70.9191C75.6862 66.6535 76.273 62.4126 77.1227 58.2212C77.5583 56.531 79.9579 55.3688 81.4781 53.9702C82.9034 55.1649 84.0987 56.6102 85.005 58.2347C87.3646 65.7528 87.6242 73.1935 83.1503 80.2416C82.8514 80.8785 82.7058 81.5769 82.7252 82.2808C82.7446 82.9847 82.9284 83.6745 83.2618 84.2949C87.0732 90.5532 91.0966 96.6643 95.1387 102.765C95.3213 103.081 97.0051 102.952 97.097 102.725C99.1977 96.7994 102.151 90.9768 102.962 84.8772C104.428 73.5628 98.5024 64.9285 90.4171 57.6154C78.8534 47.1509 57.2196 40.6895 42.1909 51.6733C40.4734 52.8362 39.1304 54.4732 38.3249 56.3859C36.8713 60.0747 34.8264 63.5008 32.2704 66.5294C27.5549 71.364 22.5875 75.9459 17.389 80.256C16.2765 81.2456 14.1378 82.4307 13.236 81.984C12.5032 81.5091 11.8743 80.8902 11.3874 80.1649C10.9006 79.4396 10.566 78.6231 10.404 77.7649C9.98078 75.0483 10.1616 72.2727 10.9335 69.6359C11.7055 66.9992 13.0495 64.5663 14.8698 62.5108C18.5971 57.7294 23.9503 55.5069 29.2655 53.1328L29.5069 52.9934L29.2655 53.1328L23.3024 53.2268C19.3956 53.3466 15.5141 52.5429 11.973 50.8808C8.43195 49.2187 5.33098 46.745 2.92177 43.6605C-0.667518 39.1593 0.764473 36.1496 6.43349 35.8037C10.5991 35.455 14.7898 35.5287 18.9419 36.0237C27.0591 37.2162 34.519 39.9293 38.1603 48.295C39.0116 50.2841 40.0957 49.4597 41.255 48.7656C53.6251 41.3261 66.365 41.5612 79.3607 46.9572C81.6968 47.9154 84.0172 48.9322 86.3269 49.9305C85.9462 49.2706 85.4795 48.6641 84.9391 48.1271C75.947 40.9158 67.1436 33.1739 55.2861 30.6928C46.2232 28.806 40.349 22.4488 35.2403 15.4016C34.2861 14.0921 34.8325 11.6929 34.6789 9.79713C36.2504 9.65953 37.8332 9.72078 39.39 9.97944C48.7494 12.6492 57.4174 17.329 64.7898 23.6927C64.6275 21.6531 64.4211 19.8374 64.3291 18.0053C63.8732 12.6462 65.4427 7.31401 68.7274 3.06305C71.8944 -0.973141 75.6556 -0.763319 76.9484 3.7491C78.5522 9.29442 79.5526 14.9961 79.9322 20.7548C80.1264 23.0188 79.756 25.2947 78.8542 27.3784C77.9523 29.462 76.5473 31.2882 74.7652 32.6928C72.1464 34.6761 72.8761 35.2967 75.0567 36.5431C77.1061 37.6351 79.0245 38.9577 80.7746 40.4851C84.8062 44.1119 88.6222 47.9717 92.203 52.0448C94.8475 55.5288 97.2741 59.173 99.4687 62.9567C100.045 60.3616 100.316 57.7076 100.276 55.0486C101.086 44.9564 105.479 41.3285 112.169 39.1038C115.872 37.8835 117.118 39.0988 116.829 42.8873C115.868 52.5458 113.368 61.5549 105.346 67.9475C104.146 68.9135 103.726 69.4291 104.431 71.0805C106.02 74.581 106.87 78.3711 106.928 82.2133C106.986 86.0555 106.251 89.8671 104.768 93.4095C101.57 101.209 97.8419 108.819 94.0841 116.421C90.0163 124.08 87.0736 132.287 85.3467 140.79C88.1262 139.392 90.7054 137.628 93.0153 135.543C99.1324 129.754 104.776 123.445 111.193 118.004C112.991 116.714 114.345 114.898 115.07 112.805C115.794 110.712 115.854 108.445 115.241 106.315C114.211 101.295 113.66 96.1901 113.594 91.0676C113.643 88.2316 114.253 85.4341 115.388 82.837C116.524 80.2398 118.163 77.8943 120.21 75.9361C122.889 73.1988 125.239 73.7521 126.574 77.2229C126.892 78.1652 127.127 79.133 127.279 80.1155C129.016 89.3764 128.034 98.9387 124.452 107.645L129.521 105.959C135.495 103.997 141.512 102.881 147.387 105.938C148.224 106.322 148.968 106.881 149.571 107.577C150.173 108.273 150.62 109.09 150.881 109.973C150.689 110.901 150.294 111.775 149.726 112.532C149.157 113.289 148.428 113.911 147.591 114.353C143.679 116.547 139.37 117.94 134.913 118.453C130.456 118.965 125.94 118.585 121.629 117.337C120.322 116.85 118.899 116.771 117.547 117.109C116.195 117.446 114.978 118.186 114.054 119.229C108.238 125.068 102.422 130.906 96.4537 136.609C93.3634 139.535 90.4342 142.739 85.8028 143.552C85.1537 143.819 84.58 144.24 84.1318 144.78C83.6837 145.32 83.3748 145.961 83.2323 146.649C82.293 155.873 80.7713 165.161 81.0614 174.37C81.4053 191.087 87.0606 207.267 97.2071 220.564C100.771 225.278 108.73 231.945 113.022 233.287C112.164 231.029 111.169 228.577 110.297 226.079C109.261 222.284 106.836 219.017 103.503 216.929C99.1777 214.343 95.8235 210.403 93.9605 205.719C92.222 201.464 91.4461 197.075 93.6243 192.741C95.6899 188.771 98.5514 188.408 100.424 192.338C102.683 197.119 104.639 202.039 106.278 207.066C107.326 210.083 107.838 213.285 108.594 216.396L109.671 216.245C109.603 214.498 109.613 212.757 109.478 211.023C108.778 201.704 113.548 197.313 120.56 193.289C122.269 192.302 124.253 192.05 124.136 195.193C124.044 204.598 122.629 213.427 114.19 219.441C113.658 219.874 113.232 220.422 112.944 221.044C112.655 221.666 112.512 222.346 112.524 223.032C114.207 233.024 119.759 238.352 129.696 239.908C131.336 240.182 132.997 240.303 134.658 240.268C161.829 239.464 181.081 226.315 192.792 202.165C197.09 193.825 198.64 184.334 197.22 175.051C196.42 170.278 194.298 166.344 189.799 164.6C183.805 162.281 177.537 160.517 171.357 158.777C170.251 158.448 168.609 159.421 167.431 160.126C161.952 163.289 156.806 167.029 151.246 169.966C145.687 172.903 139.53 174.076 133.745 170.148C131.991 168.953 129.114 167.488 130.263 164.717C131.412 163.055 133.101 161.843 135.043 161.287C141.531 158.757 148.103 156.501 154.443 154.229C151.478 151.452 148.748 149.083 146.305 146.525C145.996 146.067 145.8 145.543 145.733 144.994C145.667 144.446 145.731 143.89 145.922 143.373C146.222 142.777 147.875 142.468 148.829 142.661C157.193 144.282 165.482 146.07 170.65 153.951C171.256 154.75 172.104 155.332 173.067 155.606C179.531 157.58 186.026 159.436 192.662 161.409C187.734 154.332 182.398 147.491 174.991 142.812C169.804 139.531 164.402 136.523 158.077 136.032C146.291 135.048 135.868 138.783 126.277 145.288C125.941 145.592 125.671 145.96 125.483 146.372C125.294 146.783 125.192 147.229 125.182 147.682C125.113 154.295 121.709 159.336 117.67 164.05C113.631 168.763 109.821 172.972 105.769 177.32C104.696 178.21 103.51 178.953 102.241 179.531C101.387 178.226 100.757 176.787 100.378 175.273C99.8696 167.215 102.535 159.283 107.802 153.177C108.233 152.68 108.726 152.246 109.127 151.741C109.529 151.237 109.626 150.933 109.46 151.202C105.106 151.037 100.675 151.04 96.2765 150.628C95.6785 150.452 95.1303 150.138 94.6767 149.71C94.2231 149.282 93.8769 148.753 93.6664 148.166C93.442 147.477 94.4668 145.992 95.3367 145.44C98.3931 143.142 101.717 141.223 105.236 139.725C110.726 137.87 116.49 136.7 121.699 141.134C122.159 141.367 122.663 141.495 123.177 141.511C123.691 141.527 124.203 141.43 124.675 141.227C127.431 140.082 130.074 138.656 132.785 137.388C142.78 132.784 153.078 130.633 164.04 133.408C163.21 132.399 162.409 131.398 161.56 130.4C159.106 127.791 157.275 124.659 156.207 121.241C155.138 117.823 154.86 114.207 155.393 110.668C155.875 107.685 157.311 106.956 159.236 108.746C167.019 115.338 172.217 124.477 173.902 134.536C174.003 135.691 174.373 136.808 174.982 137.796C175.591 138.784 176.423 139.616 177.41 140.225C186.503 146.882 194.001 154.807 198.073 165.678C200.945 173.405 201.891 181.713 200.831 189.883C203.183 184.308 205.326 178.755 207.095 173.07C208.155 169.63 210.121 165.444 208.997 162.595C208.044 160.045 203.598 158.692 200.601 156.975C192.218 152.19 187.867 145.127 188.399 135.369C188.515 132.995 188.154 129.582 191.169 129.23C192.725 129.051 195.039 131.386 196.315 133.081C200.332 138.452 204.036 144.052 208.082 149.902C207.509 146.234 208.185 142.481 210 139.247C211.815 136.013 214.665 133.484 218.091 132.068C219.333 131.475 221.583 130.697 222.057 131.217C222.944 132.459 223.363 133.975 223.239 135.496C222.575 144.983 218.723 153.408 214.701 161.882C212.458 166.575 210.885 171.527 208.994 176.315C212.48 174.848 215.009 172.966 217.766 171.523C220.448 170.017 223.405 169.062 226.462 168.716C229.519 168.369 232.615 168.637 235.569 169.505C236.151 169.724 236.68 170.063 237.124 170.499C237.567 170.935 237.915 171.458 238.145 172.036C238.37 172.725 237.365 174.074 236.592 174.793C234.986 176.249 233.271 177.579 231.461 178.773C225.915 182.421 220.307 186.775 213.307 185.93C207.456 185.19 204.912 187.13 202.863 192.332C201.061 196.845 197.36 200.47 195.297 204.96C189.162 218.276 178.927 229.271 166.09 236.335C150.632 244.689 133.664 246.051 116.445 244.706C113.309 244.349 110.198 243.801 107.128 243.065C104.813 242.616 103.398 242.738 102.522 245.724C101.303 248.893 99.5122 251.811 97.2391 254.331C91.671 260.77 83.0391 260.917 75.8112 263.924C73.5994 264.854 72.9092 263.144 73.8561 261.009ZM71.8781 206.115C67.829 204.806 63.5912 204.028 58.646 202.84C62.9174 211.611 75.0612 216.432 83.4296 213.213C83.9558 212.887 84.4188 212.468 84.7963 211.977C84.3522 211.523 83.85 211.129 83.3027 210.806C79.4199 209.227 75.7062 207.427 71.7852 206.169L71.8781 206.115ZM61.5025 182.611C64.8985 193.426 72.2007 199.082 81.317 204.064C77.7302 193.906 70.7457 187.941 61.4097 182.665L61.5025 182.611ZM61.8727 107.98C61.3077 107.242 60.4949 106.733 59.5847 106.548C59.2651 106.509 58.5102 107.689 58.2108 108.457C55.8955 115.599 57.3554 122.545 59.7192 129.341C60.8835 132.687 62.4809 135.883 64.2722 140.058C69.4128 128.16 68.3825 117.84 61.7905 108.052L61.8727 107.98ZM75.275 75.4366C69.3111 68.7095 61.6305 65.5285 52.3933 64.4121C53.3115 66.5305 54.6464 68.4427 56.3185 70.0345C57.9906 71.6263 59.9655 72.8651 62.1253 73.6768C65.9231 75.2794 69.9311 76.3886 73.86 77.6179C74.6376 77.7357 75.4286 77.731 76.2044 77.6039C75.9561 76.8346 75.5808 76.1121 75.0942 75.4665L75.275 75.4366ZM83.172 73.1594C84.6127 68.0244 84.0908 62.5335 81.7081 57.7568C80.6487 60.0281 79.8583 62.4159 79.3527 64.8716C79.2856 67.6764 79.5494 70.4799 80.1387 73.2239C80.4305 74.5252 80.8133 75.8045 81.2842 77.0523C81.9788 75.8242 82.5506 74.5303 82.9912 73.1894L83.172 73.1594ZM17.2648 65.0721C15.7028 67.9256 14.4645 70.9453 13.5728 74.0749C13.2352 75.1629 13.9157 76.556 14.1271 77.823L17.4876 76.1805C23.5066 70.9938 30.3865 66.0543 34.3829 58.2649C34.8952 57.4292 35.2713 56.5171 35.4971 55.5627C35.5511 55.1843 34.1648 54.1987 34.0162 54.2844C28.3417 58.1808 20.8305 58.8957 17.084 65.1021L17.2648 65.0721ZM26.6468 41.3487C20.2961 38.541 13.481 38.5316 6.67547 38.8391C5.91156 38.9957 5.17859 39.2764 4.50567 39.6701C4.72828 40.5415 5.09026 41.3712 5.57758 42.1272C9.26094 46.466 14.5021 49.1797 20.1651 49.68C24.0622 49.9106 28.0924 49.6427 32.0295 49.8998C35.9667 50.1569 35.121 48.735 33.9602 46.0812C31.6037 44.2982 29.096 42.7246 26.4661 41.3787L26.6468 41.3487ZM63.578 28.1132C60.0178 24.9499 56.273 22.0012 52.3634 19.2828C48.6306 17.1138 44.7509 15.2094 40.7526 13.5834C39.976 13.3712 39.174 13.2666 38.3693 13.2726L38.7308 15.7429C42.4232 20.7677 47.4914 24.6145 53.3207 26.8168C56.3487 27.7724 59.276 28.811 62.2747 29.7587C62.7395 29.8339 63.2123 29.8447 63.6799 29.7908C63.6557 29.2342 63.7685 28.4001 63.4344 28.1217L63.578 28.1132ZM71.5557 31.1226C73.632 29.067 75.283 26.6219 76.4147 23.9267C78.3299 17.6365 75.9511 11.5434 74.4323 5.52428C73.5372 3.28763 71.9549 3.50656 71.1861 5.09149C69.4123 8.0426 68.2392 11.3164 67.7342 14.7246C67.8369 19.8347 68.2974 24.9318 69.1122 29.9784C69.125 31.9307 70.2456 32.4992 71.4121 31.1312L71.5557 31.1226ZM86.5516 50.148C86.6912 50.3899 86.9609 50.5567 87.1748 50.7557C87.1103 50.644 87.1838 50.428 87.1437 50.4016C86.9525 50.3034 86.7546 50.2187 86.5516 50.148ZM105.316 64.1203C109.132 59.735 111.744 54.4319 112.897 48.7294C113.081 47.9227 113.195 47.1016 113.238 46.2751C113.308 44.8952 113.264 43.5317 113.323 42.1332L108.052 43.1675C106.296 46.0938 104.861 49.2013 103.77 52.4361C103.22 56.0288 103.049 59.6698 103.257 63.2995C103.321 63.8763 103.479 64.4388 103.724 64.9651C104.305 64.7912 104.846 64.5041 105.316 64.1203ZM145.093 112C145.893 111.471 146.658 110.889 147.381 110.258C146.475 109.59 145.575 108.374 144.67 108.35C140.447 108.105 136.211 108.282 132.024 108.879C128.434 109.952 124.954 111.363 121.631 113.094L122.076 114.251C129.88 115.202 137.703 116.143 145.072 111.963L145.093 112ZM122.508 103.806C125.125 96.1015 125.668 87.8402 124.081 79.853C123.605 78.7838 123.019 77.7673 122.331 76.8205C120.574 79.9226 118.978 83.1128 117.548 86.3787C115.432 92.065 116.735 97.8372 117.714 103.523C118.079 105.57 118.68 107.554 119.177 109.574C120.467 107.761 121.582 105.83 122.508 103.806ZM59.6782 142.437C52.0646 137.665 43.197 135.292 34.2265 135.625C32.1567 135.729 30.123 136.109 28.0619 136.357C37.5046 141.174 46.5708 146.755 57.4745 146.984C57.8038 147.03 58.1387 147.013 58.4615 146.935C60.0762 146.301 61.6586 145.61 63.2518 144.938C62.093 144.016 60.8858 143.156 59.6353 142.363L59.6782 142.437ZM115.025 214.668C117.046 212.514 118.615 209.976 119.639 207.204C120.662 204.431 121.12 201.48 120.984 198.526C120.988 198.276 119.588 197.695 119.121 197.915C117.453 198.638 116.003 199.782 114.91 201.234C113.817 202.687 113.12 204.399 112.886 206.203C112.675 209.134 112.66 212.075 112.844 215.008C113.855 214.872 114.688 214.986 115.078 214.761L115.025 214.668ZM149.758 159.539C145.22 160.943 140.769 162.67 136.283 164.292C135.554 164.594 134.846 164.944 134.165 165.342C134.612 166.15 135.21 166.866 135.927 167.45C138.14 168.576 140.608 169.103 143.087 168.978C145.565 168.853 147.966 168.08 150.051 166.737C155.43 163.83 160.637 160.625 165.986 157.537C160.187 155.428 155.002 157.9 149.758 159.539ZM151.774 145.575L151.18 146.861C155.045 150.682 159.422 153.289 165.081 152.925L165.604 151.73L151.774 145.575ZM117.169 142.038C111.565 140.437 106.476 142.259 100.839 144.719L98.9888 147.177C100.073 147.468 101.261 148.196 102.248 147.974C107.337 146.797 112.386 145.42 117.435 144.043C117.874 143.825 118.262 143.517 118.572 143.138C118.107 142.762 117.697 142.18 117.169 142.038ZM117.03 149.56C109.338 155.366 103.372 163.003 103.896 174.334C110.432 167.211 117.441 161.552 121.022 153.085C121.606 151.236 122.018 149.338 122.253 147.413C120.42 147.885 118.651 148.582 116.987 149.486L117.03 149.56ZM158.591 112.046C157.869 120.748 161.592 127.281 171.063 134.463C168.956 125.991 164.636 118.229 158.548 111.972L158.591 112.046ZM216.134 151.455C217.802 146.622 219.114 141.647 220.496 136.707C220.56 135.911 220.498 135.109 220.314 134.332L218.422 134.829C213.028 138.911 210.36 143.898 211.297 150.452C211.653 153 212.172 155.528 212.624 158.07C213.987 155.973 215.162 153.759 216.134 151.455ZM193.839 134.883C193.321 134.404 192.774 133.957 192.2 133.546C191.891 134.116 191.669 134.729 191.542 135.365C191.402 141.771 192.962 147.518 198.396 151.526C200.939 153.357 203.622 154.958 206.925 157.119C204.548 148.676 200.039 140.985 193.833 134.787L193.839 134.883ZM210.738 183.196C217.044 183.996 222.245 181.167 227.182 177.795C229.466 176.476 231.751 175.157 234.035 173.838C234.41 173.56 234.746 173.233 235.033 172.865C234.555 172.57 234.044 172.332 233.51 172.157C228.972 171.083 224.197 171.843 220.221 174.273C216.655 176.332 213.28 178.678 209.851 180.93C209.357 181.365 208.918 181.86 208.546 182.403C209.244 182.722 209.978 182.956 210.732 183.1L210.738 183.196ZM104.594 211.313C102.721 206.267 100.867 201.211 98.9085 196.19C98.4426 195.396 97.8542 194.681 97.1651 194.071C96.5674 194.968 96.1179 195.956 95.8338 196.997C95.2319 203.546 98.6883 208.075 103.103 212.075L104.594 211.313ZM77.536 230.755C77.0829 231.202 76.7468 231.754 76.5572 232.362C78.4581 234.068 80.2404 236.511 82.5005 237.166C87.0367 238.264 91.638 239.071 96.2763 239.582C91.2157 234.119 84.2125 232.754 77.4989 230.776L77.536 230.755ZM97.0961 239.629L96.6945 239.663L96.7696 239.793C96.7696 239.793 96.9847 239.693 97.059 239.651L97.0961 239.629ZM98.9571 245.426C91.9201 249.836 82.8434 250.413 78.4618 258.822C89.0493 258.117 96.7911 253.126 98.92 245.447L98.9571 245.426Z" fill="black" fill-opacity="0.1"/>
</svg>
