<svg width="48" height="48" viewBox="0 0 48 48" fill="none" xmlns="http://www.w3.org/2000/svg">
<g clip-path="url(#clip0_3_382)">
<path d="M24 42C33.9411 42 42 33.9411 42 24C42 14.0589 33.9411 6 24 6C14.0589 6 6 14.0589 6 24C6 33.9411 14.0589 42 24 42Z" stroke="black" stroke-width="2" stroke-linecap="round" stroke-linejoin="round"/>
<path d="M24 34V34.02" stroke="black" stroke-width="2" stroke-linecap="round" stroke-linejoin="round"/>
<path d="M24 27.0003C23.9632 26.3511 24.1383 25.7074 24.499 25.1664C24.8598 24.6253 25.3865 24.2161 26 24.0003C26.7517 23.7129 27.4265 23.2548 27.9711 22.6622C28.5158 22.0697 28.9154 21.3588 29.1386 20.5855C29.3619 19.8122 29.4025 18.9977 29.2575 18.2061C29.1124 17.4144 28.7855 16.6672 28.3026 16.0234C27.8197 15.3795 27.194 14.8565 26.4746 14.4956C25.7552 14.1346 24.9619 13.9456 24.1571 13.9434C23.3522 13.9411 22.5578 14.1258 21.8365 14.4827C21.1151 14.8396 20.4865 15.3591 20 16.0003" stroke="black" stroke-width="2" stroke-linecap="round" stroke-linejoin="round"/>
</g>
<defs>
<clipPath id="clip0_3_382">
<rect width="48" height="48" fill="white"/>
</clipPath>
</defs>
</svg>
