<svg width="24" height="24" viewBox="0 0 24 24" fill="none" xmlns="http://www.w3.org/2000/svg">
<path d="M4.28704 18.0925L4.28605 18.0922C3.60429 17.9086 3.07037 17.3792 2.88034 16.7002C2.60694 15.1498 2.47495 13.5777 2.48599 12.0035L2.48602 12.0035L2.486 11.9977C2.4789 10.4211 2.61444 8.8471 2.89093 7.29492C3.0868 6.61324 3.61927 6.0794 4.30137 5.8822C4.63226 5.79618 5.24841 5.72366 6.03121 5.66747C6.80463 5.61194 7.70137 5.5747 8.5632 5.54979C10.2861 5.5 11.8524 5.5 11.979 5.5H12L12.0002 5.5L12.0006 5.5L12.0019 5.5L12.0065 5.50001L12.0223 5.50005L12.0794 5.50023C12.1283 5.50042 12.1987 5.50076 12.2878 5.50134C12.466 5.50249 12.7191 5.50461 13.026 5.50848C13.64 5.51622 14.4683 5.53094 15.3423 5.55887C16.217 5.58682 17.1335 5.62788 17.9249 5.68799C18.7307 5.74917 19.3642 5.82739 19.6987 5.91918L19.7001 5.91955C20.381 6.10431 20.9142 6.63317 21.1051 7.31138C21.387 8.86632 21.5193 10.4447 21.5 12.0249L21.5 12.0249L21.5 12.0332C21.5068 13.6081 21.3709 15.1803 21.094 16.7307C20.9015 17.409 20.3673 17.9374 19.6858 18.122C19.3567 18.209 18.7393 18.2827 17.9533 18.3399C17.1801 18.3962 16.2835 18.4343 15.4217 18.4598C13.6987 18.511 12.1322 18.512 12.006 18.512H11.986H11.9859H11.9855L11.9841 18.512L11.9796 18.512L11.9638 18.512L11.907 18.5118C11.8582 18.5116 11.788 18.5112 11.6992 18.5107C11.5215 18.5095 11.269 18.5074 10.9628 18.5035C10.3502 18.4958 9.5235 18.4811 8.65062 18.4531C7.77693 18.4252 6.86103 18.3841 6.06878 18.324C5.26269 18.2629 4.62637 18.1846 4.28704 18.0925ZM10.2556 8.57176L9.50672 8.14029L9.506 9.00458L9.501 15.0046L9.50028 15.8701L10.2504 15.4383L15.4624 12.4383L16.2149 12.0052L15.4626 11.5718L10.2556 8.57176Z" fill="black" stroke="white"/>
</svg>
