<svg width="74" height="29" viewBox="0 0 74 29" fill="none" xmlns="http://www.w3.org/2000/svg">
<path d="M31.56 7H33.92V18.88H39.48V21H31.56V7ZM40.3089 16.4C40.3089 15.4533 40.5222 14.62 40.9489 13.9C41.3889 13.18 41.9822 12.62 42.7289 12.22C43.4756 11.8067 44.3222 11.6 45.2689 11.6C46.2156 11.6 47.0556 11.8067 47.7889 12.22C48.5356 12.62 49.1289 13.18 49.5689 13.9C50.0089 14.62 50.2289 15.4533 50.2289 16.4C50.2289 17.3333 50.0089 18.1667 49.5689 18.9C49.1289 19.62 48.5356 20.1867 47.7889 20.6C47.0556 21 46.2156 21.2 45.2689 21.2C44.3222 21.2 43.4756 21 42.7289 20.6C41.9822 20.1867 41.3889 19.62 40.9489 18.9C40.5222 18.1667 40.3089 17.3333 40.3089 16.4ZM42.5289 16.4C42.5289 16.9733 42.6489 17.48 42.8889 17.92C43.1289 18.3467 43.4556 18.6867 43.8689 18.94C44.2822 19.18 44.7489 19.3 45.2689 19.3C45.7756 19.3 46.2356 19.18 46.6489 18.94C47.0756 18.6867 47.4089 18.3467 47.6489 17.92C47.8889 17.48 48.0089 16.9733 48.0089 16.4C48.0089 15.8267 47.8889 15.32 47.6489 14.88C47.4089 14.44 47.0756 14.1 46.6489 13.86C46.2356 13.62 45.7756 13.5 45.2689 13.5C44.7489 13.5 44.2822 13.62 43.8689 13.86C43.4556 14.1 43.1289 14.44 42.8889 14.88C42.6489 15.32 42.5289 15.8267 42.5289 16.4ZM51.7584 21.62H53.8984C53.9118 22.0333 54.0251 22.4067 54.2384 22.74C54.4651 23.0733 54.7718 23.3333 55.1584 23.52C55.5451 23.7067 55.9918 23.8 56.4984 23.8C56.9518 23.8 57.3851 23.6933 57.7984 23.48C58.2118 23.2667 58.5451 22.94 58.7984 22.5C59.0651 22.06 59.1984 21.4933 59.1984 20.8V11.8H61.3184V20.8C61.3184 21.9067 61.0918 22.82 60.6384 23.54C60.1984 24.26 59.6184 24.7933 58.8984 25.14C58.1784 25.5 57.3984 25.68 56.5584 25.68C55.5584 25.68 54.7051 25.5067 53.9984 25.16C53.2918 24.8267 52.7451 24.3533 52.3584 23.74C51.9851 23.1267 51.7851 22.42 51.7584 21.62ZM51.5784 16.36C51.5784 15.3333 51.7851 14.4733 52.1984 13.78C52.6118 13.0733 53.1584 12.5333 53.8384 12.16C54.5318 11.7867 55.2718 11.6 56.0584 11.6C56.8318 11.6 57.5051 11.7933 58.0784 12.18C58.6651 12.5533 59.1251 13.0933 59.4584 13.8C59.8051 14.5067 59.9784 15.36 59.9784 16.36C59.9784 17.3467 59.8051 18.1933 59.4584 18.9C59.1251 19.6067 58.6651 20.1533 58.0784 20.54C57.5051 20.9133 56.8318 21.1 56.0584 21.1C55.2718 21.1 54.5318 20.9133 53.8384 20.54C53.1584 20.1667 52.6118 19.6267 52.1984 18.92C51.7851 18.2133 51.5784 17.36 51.5784 16.36ZM53.8184 16.36C53.8184 16.9733 53.9451 17.4933 54.1984 17.92C54.4518 18.3467 54.7851 18.6733 55.1984 18.9C55.6251 19.1133 56.0851 19.22 56.5784 19.22C56.9918 19.22 57.3984 19.1133 57.7984 18.9C58.2118 18.6867 58.5451 18.3667 58.7984 17.94C59.0651 17.5 59.1984 16.9733 59.1984 16.36C59.1984 15.88 59.1184 15.4667 58.9584 15.12C58.8118 14.76 58.6118 14.46 58.3584 14.22C58.1051 13.9667 57.8184 13.78 57.4984 13.66C57.1918 13.54 56.8851 13.48 56.5784 13.48C56.0851 13.48 55.6251 13.5933 55.1984 13.82C54.7851 14.0333 54.4518 14.3533 54.1984 14.78C53.9451 15.2067 53.8184 15.7333 53.8184 16.36ZM63.2972 16.4C63.2972 15.4533 63.5105 14.62 63.9372 13.9C64.3772 13.18 64.9705 12.62 65.7172 12.22C66.4639 11.8067 67.3105 11.6 68.2572 11.6C69.2039 11.6 70.0439 11.8067 70.7772 12.22C71.5239 12.62 72.1172 13.18 72.5572 13.9C72.9972 14.62 73.2172 15.4533 73.2172 16.4C73.2172 17.3333 72.9972 18.1667 72.5572 18.9C72.1172 19.62 71.5239 20.1867 70.7772 20.6C70.0439 21 69.2039 21.2 68.2572 21.2C67.3105 21.2 66.4639 21 65.7172 20.6C64.9705 20.1867 64.3772 19.62 63.9372 18.9C63.5105 18.1667 63.2972 17.3333 63.2972 16.4ZM65.5172 16.4C65.5172 16.9733 65.6372 17.48 65.8772 17.92C66.1172 18.3467 66.4439 18.6867 66.8572 18.94C67.2705 19.18 67.7372 19.3 68.2572 19.3C68.7639 19.3 69.2239 19.18 69.6372 18.94C70.0639 18.6867 70.3972 18.3467 70.6372 17.92C70.8772 17.48 70.9972 16.9733 70.9972 16.4C70.9972 15.8267 70.8772 15.32 70.6372 14.88C70.3972 14.44 70.0639 14.1 69.6372 13.86C69.2239 13.62 68.7639 13.5 68.2572 13.5C67.7372 13.5 67.2705 13.62 66.8572 13.86C66.4439 14.1 66.1172 14.44 65.8772 14.88C65.6372 15.32 65.5172 15.8267 65.5172 16.4Z" fill="white"/>
<rect width="16" height="16" rx="4" fill="#C07FF2"/>
<rect x="8" y="8" width="16" height="16" rx="8" fill="#09AFF4"/>
</svg>
