<svg width="24" height="24" viewBox="0 0 24 24" fill="none" xmlns="http://www.w3.org/2000/svg">
<mask id="path-1-inside-1_2054_7144" fill="white">
<path d="M13.1295 10.8515L18.5274 4.5H17.2483L12.5612 10.0149L8.81771 4.5H4.5L10.1609 12.8395L4.5 19.5H5.77921L10.7288 13.6761L14.6823 19.5H19L13.1292 10.8515H13.1295ZM11.3774 12.913L10.8038 12.0825L6.24013 5.47476H8.20493L11.8879 10.8075L12.4615 11.6379L17.2489 18.5696H15.2841L11.3774 12.9133V12.913Z"/>
</mask>
<path d="M13.1295 10.8515L18.5274 4.5H17.2483L12.5612 10.0149L8.81771 4.5H4.5L10.1609 12.8395L4.5 19.5H5.77921L10.7288 13.6761L14.6823 19.5H19L13.1292 10.8515H13.1295ZM11.3774 12.913L10.8038 12.0825L6.24013 5.47476H8.20493L11.8879 10.8075L12.4615 11.6379L17.2489 18.5696H15.2841L11.3774 12.9133V12.913Z" fill="white" stroke="black" stroke-width="2" mask="url(#path-1-inside-1_2054_7144)"/>
</svg>
