<svg width="24" height="24" viewBox="0 0 24 24" fill="none" xmlns="http://www.w3.org/2000/svg">
<path d="M4.41808 17.61L4.41609 17.6094C3.91222 17.4737 3.516 17.0861 3.36819 16.5875C3.10314 15.0754 2.97521 13.5422 2.98598 12.007L2.98605 12.007L2.98599 11.9955C2.97907 10.4582 3.1104 8.92346 3.37836 7.40976C3.53143 6.90648 3.9278 6.51305 4.43379 6.36441C4.7163 6.29214 5.28649 6.22222 6.06702 6.16618C6.83032 6.11138 7.71912 6.07439 8.57764 6.04958C10.2932 6.00001 11.8538 6 11.979 6H12H12L12.0056 6.00001L12.021 6.00004L12.0774 6.00023C12.126 6.00042 12.1959 6.00075 12.2846 6.00132C12.4619 6.00247 12.714 6.00458 13.0197 6.00844C13.6317 6.01615 14.4566 6.03082 15.3263 6.05861C16.1977 6.08646 17.106 6.12724 17.8871 6.18655C18.6967 6.24803 19.2846 6.32403 19.5664 6.40136L19.5692 6.40211C20.0731 6.53885 20.4693 6.9267 20.6176 7.42551C20.8907 8.94096 21.0188 10.479 21.0001 12.0188L21 12.0271L21 12.0353C21.0067 13.5712 20.875 15.1044 20.6064 16.6166C20.4567 17.1149 20.0602 17.5021 19.5564 17.639C19.2779 17.7124 18.7051 17.7839 17.917 17.8413C17.154 17.8968 16.2653 17.9346 15.4068 17.9601C13.6912 18.011 12.1305 18.012 12.006 18.012H11.986L11.9805 18.012L11.9652 18.012L11.9089 18.0118C11.8605 18.0116 11.7908 18.0112 11.7024 18.0107C11.5256 18.0095 11.2742 18.0074 10.9691 18.0036C10.3586 17.9959 9.53531 17.9812 8.66661 17.9534C7.7963 17.9255 6.88852 17.8848 6.10661 17.8254C5.297 17.764 4.70548 17.688 4.41808 17.61ZM10.5052 8.13852L9.00744 7.27558L9.006 9.00417L9.001 15.0042L8.99956 16.7352L10.4999 15.8717L15.7119 12.8717L17.2169 12.0054L15.7122 11.1385L10.5052 8.13852Z" fill="white" stroke="black" stroke-width="2"/>
</svg>
